<svg width="185" height="22" viewBox="0 0 185 22" fill="none" xmlns="http://www.w3.org/2000/svg">
<path d="M22.5419 4.02972C22.5065 2.92095 22.0588 2.06255 21.1044 1.5022C20.1442 0.941857 19.0838 0.79879 18.0057 0.792829C13.0513 0.780907 8.09101 0.786868 3.13661 0.786868C2.9422 0.786868 2.74191 0.792829 2.5475 0.786868C2.40611 0.780907 2.34131 0.828596 2.30597 0.977624C2.19404 1.46047 2.05854 1.93737 1.93483 2.41426C1.72864 3.20708 1.52245 3.99991 1.31626 4.81659H10.4416C10.4416 4.83447 10.4416 4.85236 10.4416 4.87024C10.3826 4.89408 10.3178 4.92389 10.2589 4.94773C8.10869 5.77037 5.95255 6.593 3.8023 7.40968C3.64913 7.46929 3.54309 7.54082 3.49597 7.71966C2.3472 12.0296 1.18666 16.3454 0.0261152 20.6553C-0.0327957 20.8818 -0.00334026 20.9295 0.232303 20.9295C2.3531 20.9176 4.47389 20.9176 6.59468 20.9295C6.80676 20.9295 6.87156 20.858 6.92458 20.6672C7.42532 18.7656 7.94374 16.864 8.44448 14.9565C8.51517 14.6942 8.62121 14.6167 8.88042 14.6286C9.85245 14.6584 10.8245 14.6703 11.7965 14.6644C13.1868 14.6524 14.583 14.7597 15.9674 14.5511C18.3827 14.1815 20.1324 12.9416 20.9925 10.575C21.4815 9.23378 21.7466 7.82696 22.1236 6.4559C22.3357 5.65711 22.5654 4.87024 22.5419 4.02972ZM14.7421 7.70177C14.6124 8.22635 14.4946 8.76285 14.2767 9.26359C13.9055 10.122 13.2693 10.587 12.3385 10.6048C11.4961 10.6227 10.6536 10.6108 9.80532 10.6168C9.64037 10.6168 9.60502 10.581 9.65215 10.4141C10.1411 8.61979 10.6242 6.82549 11.1014 5.02523C11.1485 4.85832 11.2251 4.81063 11.39 4.81659C11.8201 4.82851 12.256 4.82255 12.7744 4.82255C13.2104 4.84639 13.7406 4.7689 14.2649 4.88216C14.8363 5.00734 15.1014 5.33521 15.0955 5.93132C15.0955 6.54531 14.8893 7.11758 14.7421 7.70177Z" fill="#3157A1"/>
<path d="M38.5126 5.07292C37.8351 4.84043 37.14 4.75102 36.4271 4.74505C33.4521 4.73909 30.4771 4.72121 27.5021 4.73909C26.0588 4.75102 24.9749 5.43058 24.2856 6.72415C24.0676 7.13547 23.9145 7.57659 23.7672 8.01771C23.6906 8.2502 23.7377 8.31577 23.9911 8.31577C25.7289 8.30385 27.4668 8.30981 29.2047 8.30981C29.3284 8.30981 29.458 8.28 29.5994 8.36346C29.5051 8.40519 29.4285 8.44095 29.3461 8.47076C27.3608 9.26359 25.3755 10.0505 23.3843 10.8373C23.2193 10.9029 23.1369 10.9804 23.0897 11.1592C22.748 12.4289 22.3887 13.6987 22.047 14.9684C21.8172 15.8208 21.5286 16.6554 21.4343 17.5376C21.2694 18.9981 21.9351 20.083 23.3077 20.5659C23.9616 20.7984 24.645 20.9057 25.3283 20.9057C29.187 20.9235 33.0457 20.9176 36.8984 20.9295C37.0987 20.9295 37.14 20.8282 37.1812 20.6791C37.4522 19.624 37.7173 18.5689 38 17.5197C38.059 17.2932 38.0059 17.2336 37.7762 17.2336C35.6495 17.2396 33.5169 17.2396 31.3844 17.2396C30.6892 17.2396 29.9882 17.2455 29.293 17.2396C28.4506 17.2277 28.103 16.7984 28.2209 15.9579C28.2739 15.5705 28.4094 15.2128 28.5272 14.8432C28.592 14.6524 28.6862 14.6107 28.863 14.6107C30.1178 14.6346 31.3726 14.6167 32.6274 14.6465C34.5125 14.6882 36.3977 14.6524 38.2828 14.6644C38.5244 14.6644 38.6186 14.5988 38.6775 14.3603C39.0546 12.9118 39.4551 11.4752 39.8322 10.0266C40.0443 9.2159 40.3035 8.41115 40.2858 7.55274C40.2681 6.30687 39.679 5.47827 38.5126 5.07292ZM33.5228 9.55568C33.458 10.0803 33.2931 10.575 33.1811 11.0877C33.1576 11.195 33.1105 11.2606 32.9867 11.2606C31.8321 11.2546 30.6715 11.2606 29.4874 11.2606C29.7349 10.3187 29.9705 9.40069 30.2061 8.48268C30.2356 8.36346 30.3063 8.33961 30.4182 8.33961C31.1252 8.34557 31.8321 8.32769 32.5331 8.3575C33.2636 8.38134 33.6171 8.82843 33.5228 9.55568Z" fill="#3157A1"/>
<path d="M39.7262 20.9295C40.3094 18.6822 40.8867 16.4825 41.4581 14.2769C41.7232 13.2635 41.9942 12.2501 42.2534 11.2308C42.3006 11.0519 42.383 10.9506 42.5539 10.885C44.5156 10.1041 46.4715 9.31724 48.4273 8.53633C48.5451 8.48864 48.6629 8.44095 48.8043 8.38134C48.6806 8.28596 48.5628 8.32173 48.4568 8.32173C46.7189 8.32173 44.981 8.32173 43.2431 8.32769C43.0487 8.32769 43.0134 8.29192 43.0723 8.09521C43.3492 7.06393 43.6202 6.0267 43.8794 4.98946C43.9265 4.7987 44.0149 4.74505 44.2034 4.74505C47.9914 4.74505 51.7793 4.73909 55.5732 4.74505C56.2094 4.74505 56.8457 4.81659 57.4642 5.00138C59.0018 5.46039 59.6911 6.55127 59.4495 8.16674C59.2728 9.353 58.8899 10.4916 58.5835 11.654C57.7941 14.6524 56.9812 17.639 56.1859 20.6315C56.127 20.858 56.0445 20.9355 55.7971 20.9355C53.8707 20.9236 51.9502 20.9236 50.0238 20.9355C49.7881 20.9355 49.7292 20.8997 49.7999 20.6434C50.7425 17.1442 51.6733 13.645 52.6041 10.1458C52.6748 9.87758 52.716 9.60337 52.7101 9.3232C52.6983 8.78074 52.4804 8.50056 51.9443 8.39922C51.42 8.29788 50.8898 8.37538 50.3596 8.35154C50.0591 8.33961 49.688 8.25616 49.47 8.39326C49.2403 8.53633 49.2697 8.94169 49.1873 9.23378C48.174 13.0191 47.1607 16.8044 46.1651 20.5957C46.0885 20.8759 45.9825 20.9355 45.7115 20.9355C43.8381 20.9236 41.9589 20.9295 40.0855 20.9295C39.9736 20.9295 39.8676 20.9295 39.7262 20.9295Z" fill="#3157A1"/>
<path d="M80.7399 9.89546C80.2333 11.7076 79.7326 13.49 79.2377 15.2664C79.1317 15.642 79.0433 16.0175 79.061 16.405C79.0846 16.9057 79.3261 17.2157 79.8209 17.2753C80.6398 17.3767 81.4704 17.3111 82.2893 17.3111C82.4896 17.3111 82.4542 17.1382 82.4837 17.0309C82.9079 15.4334 83.3261 13.8358 83.7385 12.2322C83.9506 11.4156 84.1509 10.5989 84.3571 9.7822C84.3689 9.72259 84.3806 9.66298 84.3865 9.60337C84.469 8.73305 84.1214 8.33365 83.2554 8.33961C80.6575 8.34557 78.0536 8.36346 75.4556 8.36942C75.2377 8.36942 75.0256 8.35749 74.8076 8.36346C74.6368 8.36942 74.5779 8.32173 74.6309 8.14289C74.9372 7.06989 75.2436 5.99093 75.544 4.91196C75.5794 4.78678 75.6265 4.72717 75.762 4.73313C75.8975 4.73909 76.0389 4.72717 76.1744 4.72717C79.7797 4.72717 83.3792 4.72121 86.9845 4.72717C87.7916 4.72717 88.581 4.8762 89.3291 5.21598C90.7548 5.85978 91.4264 7.11162 91.0729 8.65555C90.6959 10.2829 90.2423 11.8924 89.8122 13.5139C89.1878 15.8745 88.5515 18.241 87.933 20.6016C87.8682 20.8461 87.7739 20.9176 87.5206 20.9176C83.8681 20.9057 80.2156 20.9116 76.5632 20.9116C75.815 20.9116 75.0727 20.8639 74.3481 20.6553C72.8164 20.2201 72.1213 19.1233 72.3452 17.5317C72.5101 16.3692 72.9343 15.2724 73.2347 14.1457C73.3466 13.7225 73.4821 13.3112 73.6 12.8879C73.6353 12.7508 73.6942 12.6674 73.8297 12.6137C76.0978 11.7076 78.3658 10.8016 80.6339 9.89546C80.6457 9.90143 80.6751 9.90143 80.7399 9.89546Z" fill="#3157A1"/>
</svg>
